ply
format ascii 1.0
comment VTK generated PLY File
obj_info vtkPolyData points and polygons: vtk4.0
element vertex 160
property float x
property float y
property float z
property uchar red
property uchar green
property uchar blue
element face 0
property list uchar int vertex_indices
end_header
0.1107911691069603 0.64284300804138184 -0.19337832927703857 155 165 168 
-0.60878723859786987 0.55027961730957031 0.44732731580734253 163 166 162 
-0.43105381727218628 -0.012653112411499023 -0.22421753406524658 206 214 215 
-0.43303722143173218 -0.007521510124206543 -0.20420631766319275 206 215 217 
-0.43536457419395447 -0.0054218373261392117 -0.18863587081432343 205 214 216 
-0.43149051070213318 -0.0093395709991455078 -0.27532225847244263 218 227 228 
-0.4322180449962616 -0.0057917437516152859 -0.23555898666381836 206 215 217 
-0.43556874990463257 -0.0025625627022236586 -0.18115529417991638 204 212 213 
-0.61032652854919434 0.56166255474090576 0.4240763783454895 159 162 158 
-0.43446916341781616 -0.0020361742936074734 -0.23812758922576904 212 222 223 
-0.43589526414871216 -0.00054434937192127109 -0.21466509997844696 205 214 215 
-0.97668421268463135 -0.014763534069061279 -0.40305587649345398 208 216 218 
-0.43695902824401855 0.0050785942003130913 -0.22571620345115662 202 212 213 
-0.44107827544212341 0.011219939216971397 -0.17237710952758789 192 184 176 
-0.59598815441131592 0.47873270511627197 0.60897243022918701 189 190 187 
-0.97512519359588623 -0.0094802780076861382 -0.389812171459198 208 217 218 
-0.4360252320766449 0.005126953125 -0.25199791789054871 216 224 225 
-0.43899291753768921 0.010771950706839561 -0.19845001399517059 197 192 187 
-0.43643295764923096 0.0097076892852783203 -0.25106498599052429 214 224 225 
-0.44277113676071167 0.015398065559566021 -0.17776152491569519 192 184 175 
-0.60949265956878662 0.57121193408966064 0.42594814300537109 154 156 153 
-0.43795830011367798 0.0077605247497558594 -0.30152532458305359 219 228 229 
-0.43877023458480835 0.0088448924943804741 -0.28935456275939941 218 227 229 
-0.43862664699554443 0.012318253517150879 -0.25869530439376831 219 227 228 
-0.4393773078918457 0.014726082794368267 -0.22974976897239685 201 203 202 
-0.61281192302703857 0.5808376669883728 0.37267249822616577 152 156 151 
-0.61266899108886719 0.57851219177246094 0.38732564449310303 152 156 151 
-0.98446202278137207 -0.0013064941158518195 -0.4169800877571106 209 217 219 
-0.4384952187538147 0.018298348411917686 -0.23562741279602051 199 198 194 
-0.43927726149559021 0.019020318984985352 -0.21601530909538269 196 191 187 
-0.987712562084198 0.0014064511051401496 -0.42629140615463257 209 217 219 
-0.60963404178619385 0.57656896114349365 0.4260019063949585 152 155 152 
-1.0112860202789307 0.046055875718593597 -0.47047489881515503 191 181 172 
-1.0075232982635498 0.048999428749084473 -0.43917497992515564 192 181 172 
1.0042788982391357 -0.63480669260025024 -0.55494493246078491 179 192 195 
-0.44153890013694763 0.018229167908430099 -0.25978320837020874 217 226 227 
-0.59391367435455322 0.54857742786407471 0.61245238780975342 160 165 163 
-1.0112614631652832 0.050385992974042892 -0.46127134561538696 192 181 171 
-1.0084965229034424 0.052561920136213303 -0.44029128551483154 192 181 173 
-0.44084662199020386 0.021497925743460655 -0.2715890109539032 212 221 222 
0.79705977439880371 -0.20124903321266174 -0.38804447650909424 175 187 190 
-0.44204044342041016 0.025298237800598145 -0.27298733592033386 215 222 221 
-0.6132587194442749 0.59172302484512329 0.37517890334129333 147 150 145 
-0.59645164012908936 0.49341130256652832 0.60210168361663818 184 184 182 
-0.99090683460235596 0.018030166625976562 -0.40524181723594666 200 196 192 
-1.014517068862915 0.057432495057582855 -0.46661800146102905 192 181 172 
-1.0118159055709839 0.058220706880092621 -0.45001226663589478 191 181 172 
-0.4437224268913269 0.033551216125488281 -0.24341773986816406 195 184 176 
-0.99561738967895508 0.019296806305646896 -0.42639482021331787 210 214 214 
-0.99451947212219238 0.023800015449523926 -0.41628420352935791 197 191 185 
-0.61234652996063232 0.59921419620513916 0.37639707326889038 143 146 142 
-0.43841716647148132 0.02352750301361084 -0.47025737166404724 219 227 229 
-0.98900890350341797 0.031936448067426682 -0.36935228109359741 190 180 172 
-0.59525525569915771 0.50165891647338867 0.60884058475494385 184 185 182 
-1.0037238597869873 0.033175826072692871 -0.44654130935668945 194 188 183 
-1.0045894384384155 0.036996405571699142 -0.45422324538230896 190 182 175 
-0.99628591537475586 0.040522657334804535 -0.40197837352752686 190 181 172 
-1.0045740604400635 0.041071772575378418 -0.43881726264953613 192 182 171 
-0.59498775005340576 0.51094949245452881 0.6088789701461792 176 180 177 
-0.59525716304779053 0.51283913850784302 0.61085730791091919 176 180 178 
-0.59471148252487183 0.52226835489273071 0.60870444774627686 169 172 171 
-0.61080664396286011 0.55235034227371216 0.41042393445968628 163 165 161 
-0.84671533107757568 -0.17288005352020264 0.10129415988922119 187 188 185 
0.89574241638183594 -0.68763303756713867 -0.53725755214691162 188 198 199 
0.93458575010299683 -0.66642940044403076 -0.54336690902709961 185 197 198 
-1.0015764236450195 0.0090840067714452744 -0.4768669605255127 208 217 219 
-0.98716038465499878 0.010732531547546387 -0.39263460040092468 206 207 205 
-0.44551819562911987 0.047850213944911957 -0.2400231808423996 192 182 174 
-0.59536665678024292 0.51611852645874023 0.60958975553512573 174 178 175 
-1.0017306804656982 0.01378454826772213 -0.47002419829368591 208 217 218 
-0.99374008178710938 0.015667557716369629 -0.42283019423484802 208 215 217 
-0.98901140689849854 0.015465697273612022 -0.4006805419921875 205 203 200 
-1.000584602355957 0.018676638603210449 -0.45614969730377197 207 216 218 
-0.99214839935302734 0.020527323707938194 -0.41429305076599121 203 202 199 
0.98460757732391357 -0.64742684364318848 -0.550254225730896 183 195 197 
-1.0099725723266602 0.022876422852277756 -0.4934442937374115 207 217 218 
-0.99962711334228516 0.023206194862723351 -0.44400501251220703 209 215 214 
-0.84025335311889648 -0.17785158753395081 0.1436818540096283 179 180 176 
-1.0017917156219482 0.027194341644644737 -0.44372451305389404 208 206 202 
-0.99395549297332764 0.028231304138898849 -0.40565156936645508 189 180 172 
-0.98447072505950928 0.0285797119140625 -0.35733970999717712 190 180 171 
-0.99682682752609253 0.032523714005947113 -0.41273057460784912 191 181 172 
-0.43130216002464294 -0.020933628082275391 -0.18389138579368591 205 214 215 
-1.0088438987731934 0.035873215645551682 -0.47008022665977478 205 204 201 
-0.9923815131187439 0.037753187119960785 -0.38245770335197449 190 181 172 
-0.97701948881149292 0.037955842912197113 -0.30558806657791138 190 180 172 
-1.0136768817901611 0.040735006332397461 -0.48653125762939453 203 200 197 
-1.009128212928772 0.040467899292707443 -0.46445488929748535 190 180 173 
-0.99493759870529175 0.041479628533124924 -0.38837176561355591 191 181 173 
-1.0088537931442261 0.044554155319929123 -0.45871967077255249 192 180 172 
-1.0074204206466675 0.044721763581037521 -0.44765251874923706 191 181 171 
-0.43472060561180115 -0.0067053637467324734 -0.20169031620025635 206 214 216 
-0.99657857418060303 0.049160998314619064 -0.38625055551528931 192 182 173 
-0.98725712299346924 0.054087162017822266 -0.32122814655303955 192 181 172 
-0.43710812926292419 8.0982848885469139e-05 -0.2010113000869751 203 213 214 
-0.43754404783248901 1.0967254638671875e-05 -0.17778146266937256 199 196 193 
-0.59530425071716309 0.55326306819915771 0.59965497255325317 154 159 156 
-0.43849408626556396 0.0046199960634112358 -0.29993805289268494 220 227 229 
-0.43697556853294373 0.0034229755401611328 -0.20915620028972626 202 211 212 
-0.4369351863861084 0.0044658980332314968 -0.20038263499736786 199 203 202 
-0.43949326872825623 0.0030838251113891602 -0.17649063467979431 196 192 187 
-1.0164642333984375 0.06206468865275383 -0.46698075532913208 193 183 174 
-0.43832588195800781 0.0083508891984820366 -0.23613083362579346 204 214 214 
-0.43953686952590942 0.011180400848388672 -0.23900091648101807 203 212 213 
-0.44135960936546326 0.015537699684500694 -0.29173490405082703 219 227 229 
-0.44066080451011658 0.015248497948050499 -0.26907142996788025 218 227 228 
-0.59619027376174927 0.48650035262107849 0.6073005199432373 186 187 183 
-0.44101154804229736 0.019533079117536545 -0.25281953811645508 202 210 211 
0.40055626630783081 -0.67757141590118408 0.44337829947471619 209 219 220 
-0.61046373844146729 0.57310640811920166 0.42416274547576904 154 156 153 
-0.59541767835617065 0.49415716528892517 0.61269927024841309 187 188 186 
-0.44316589832305908 0.02684938907623291 -0.23628191649913788 197 192 187 
-0.44130784273147583 0.025790095329284668 -0.22781781852245331 196 190 183 
-0.44210124015808105 0.026612281799316406 -0.20643970370292664 193 183 174 
-0.44432768225669861 0.026263197883963585 -0.18771633505821228 193 182 173 
-0.44444167613983154 0.029706835746765137 -0.28144890069961548 216 224 223 
-0.44374299049377441 0.029439568519592285 -0.26489931344985962 199 197 193 
-0.44280445575714111 0.029632966965436935 -0.21692340075969696 193 184 174 
-0.97873198986053467 -0.0060212216340005398 -0.39249742031097412 208 217 219 
-0.97393006086349487 -0.0060784420929849148 -0.36141297221183777 208 217 218 
-0.61069703102111816 0.58451128005981445 0.4022173285484314 149 152 148 
-0.59769678115844727 0.5040736198425293 0.58503913879394531 180 182 179 
-0.44465994834899902 0.037769120186567307 -0.23116473853588104 194 184 175 
-0.97932171821594238 0.0028554997406899929 -0.38355553150177002 208 217 219 
-0.98083895444869995 0.0067607564851641655 -0.37213671207427979 206 204 200 
0.44943481683731079 -0.63428056240081787 0.45659834146499634 208 219 220 
-0.59400081634521484 0.51859617233276367 0.61031228303909302 176 180 178 
-0.44353240728378296 0.03314010426402092 -0.26839876174926758 198 193 189 
0.76920574903488159 -0.75482308864593506 0.38221883773803711 161 171 174 
-0.44664543867111206 0.054364763200283051 -0.262001633644104 192 182 173 
-0.99299633502960205 0.013802409172058105 -0.42008578777313232 209 215 216 
-0.59328430891036987 0.48160454630851746 0.62940424680709839 193 194 191 
-1.0053441524505615 0.022978842258453369 -0.47287535667419434 207 216 218 
-0.59409594535827637 0.48707377910614014 0.61148965358734131 187 188 186 
-1.010616660118103 0.028702240437269211 -0.48928391933441162 207 217 218 
-0.43775999546051025 -0.0067964000627398491 -0.16752767562866211 200 203 201 
-0.43569904565811157 -0.009145776741206646 -0.14804153144359589 194 193 190 
0.79391849040985107 -0.7146720290184021 0.36749565601348877 162 172 176 
-0.59421795606613159 0.49984782934188843 0.61145216226577759 185 187 184 
-0.60944288969039917 0.56634354591369629 0.43445298075675964 156 158 155 
-0.5939556360244751 0.50381433963775635 0.61188989877700806 183 185 182 
-1.010677695274353 0.037126742303371429 -0.47673186659812927 206 208 207 
-0.59573745727539062 0.50543457269668579 0.59955030679702759 179 181 178 
0.79485386610031128 -0.18714690208435059 -0.34613987803459167 181 193 197 
-0.99946892261505127 0.036042056977748871 -0.42053160071372986 191 181 172 
-0.5932164192199707 0.51494133472442627 0.61260545253753662 176 181 178 
-0.44244453310966492 0.021662911400198936 -0.23376350104808807 197 192 187 
0.79030466079711914 -0.71589463949203491 0.35679906606674194 163 172 176 
0.79474353790283203 -0.70987647771835327 0.35100424289703369 169 178 181 
0.79889488220214844 -0.70856595039367676 0.37136384844779968 161 172 175 
0.80174058675765991 -0.69644159078598022 0.34278851747512817 210 209 209 
0.45192235708236694 -0.67676520347595215 0.45095586776733398 209 219 220 
0.7586139440536499 -0.76500052213668823 0.35950323939323425 165 174 178 
0.76135730743408203 -0.76136183738708496 0.36740922927856445 163 174 177 
0.7635502815246582 -0.75749480724334717 0.35154801607131958 164 175 177 
0.77328205108642578 -0.74221557378768921 0.35098469257354736 162 173 176 
0.77470731735229492 -0.73966383934020996 0.36655861139297485 162 172 175 
0.77656316757202148 -0.73921674489974976 0.3600805401802063 161 171 175 
0.77992713451385498 -0.73652303218841553 0.37243935465812683 161 172 175 
0.78154659271240234 -0.72746407985687256 0.32910484075546265 212 212 212 
