ply
format ascii 1.0
comment VTK generated PLY File
obj_info vtkPolyData points and polygons: vtk4.0
element vertex 61
property float x
property float y
property float z
property uchar red
property uchar green
property uchar blue
element face 0
property list uchar int vertex_indices
end_header
0.59222006797790527 0.46919155120849609 0.6134570837020874 152 163 166 
0.59371399879455566 0.47088092565536499 0.59626674652099609 153 163 165 
0.59098720550537109 0.47318863868713379 0.62168192863464355 150 161 164 
0.59817063808441162 0.4819609522819519 0.58196055889129639 154 164 167 
0.60266244411468506 0.48611831665039062 0.55199682712554932 159 170 173 
0.59565639495849609 0.48215490579605103 0.6088445782661438 151 161 164 
-0.87996506690979004 0.32367265224456787 -0.46906289458274841 206 195 186 
-0.87450826168060303 0.33417975902557373 -0.47781336307525635 206 195 186 
0.60196775197982788 0.49246484041213989 0.56900477409362793 155 166 169 
0.60014283657073975 0.49309372901916504 0.593758225440979 152 162 166 
-0.87376868724822998 0.34103819727897644 -0.46607682108879089 206 196 186 
0.60141855478286743 0.49508440494537354 0.58906155824661255 153 163 166 
-0.87297773361206055 0.34878534078598022 -0.45085495710372925 206 195 186 
0.59893119335174561 0.49756884574890137 0.611644446849823 150 161 164 
-0.87553238868713379 0.35041594505310059 -0.40235120058059692 204 196 185 
0.60320967435836792 0.50117623805999756 0.5942302942276001 151 162 165 
-0.8768579363822937 0.35386967658996582 -0.38459533452987671 201 191 181 
-0.98721992969512939 0.34512853622436523 -0.14608316123485565 198 191 183 
0.73041176795959473 -0.48461264371871948 0.4010424017906189 155 166 169 
0.7374957799911499 -0.46766361594200134 0.43554326891899109 147 158 161 
-0.86916136741638184 0.36141341924667358 -0.41550430655479431 206 196 186 
-0.87089288234710693 0.36140292882919312 -0.40399694442749023 206 196 185 
0.74982297420501709 -0.44455978274345398 0.45297619700431824 145 157 161 
0.74849593639373779 -0.44921338558197021 0.43668001890182495 148 160 163 
0.74684429168701172 -0.45189237594604492 0.43369174003601074 151 163 166 
-0.89097899198532104 0.28380954265594482 -0.52407991886138916 196 186 176 
-0.86955380439758301 0.39197039604187012 -0.30879271030426025 223 217 210 
-0.88950490951538086 0.29502922296524048 -0.49669843912124634 195 185 176 
-0.98611325025558472 0.3920665979385376 -0.17793998122215271 206 197 187 
0.75923025608062744 -0.42921003699302673 0.44689309597015381 159 170 173 
-0.8873831033706665 0.30837970972061157 -0.4607241153717041 195 184 176 
-0.87639188766479492 0.33347362279891968 -0.46979767084121704 205 196 186 
-0.8772849440574646 0.33357679843902588 -0.45580682158470154 206 195 185 
-0.88284492492675781 0.34195253252983093 -0.37588831782341003 194 185 174 
-0.87324988842010498 0.35027489066123962 -0.41647002100944519 205 195 185 
-0.87710428237915039 0.35848364233970642 -0.37800931930541992 201 192 181 
-0.87919521331787109 0.35861262679100037 -0.36310943961143494 195 186 175 
0.53545933961868286 -0.50846505165100098 0.49971544742584229 208 218 220 
-0.87660801410675049 0.36282500624656677 -0.36877593398094177 200 190 180 
-0.87630361318588257 0.3628230094909668 -0.34888589382171631 195 186 175 
0.5242992639541626 -0.50845038890838623 0.50103759765625 208 218 221 
-0.86819720268249512 0.36573177576065063 -0.40519309043884277 206 196 185 
-0.87436693906784058 0.36975836753845215 -0.34085237979888916 198 189 178 
-0.87652826309204102 0.37109777331352234 -0.32512140274047852 196 186 177 
-0.86812269687652588 0.37441742420196533 -0.38907170295715332 206 197 186 
-0.88328713178634644 0.30003398656845093 -0.52448916435241699 206 195 187 
-0.88239371776580811 0.30907255411148071 -0.49683958292007446 205 195 186 
-0.98003816604614258 0.33150619268417358 -0.16375713050365448 190 180 171 
-0.87069457769393921 0.37044095993041992 -0.39002746343612671 206 197 187 
-0.88438934087753296 0.30695480108261108 -0.48595279455184937 200 190 181 
-0.86393368244171143 0.37313753366470337 -0.41974100470542908 207 197 187 
-0.87849617004394531 0.32224917411804199 -0.48647996783256531 206 195 186 
-0.88169646263122559 0.32581984996795654 -0.43910211324691772 197 186 177 
-0.87697732448577881 0.32649242877960205 -0.48510247468948364 206 196 187 
-0.87847423553466797 0.32794296741485596 -0.46878227591514587 206 195 186 
-0.88111847639083862 0.34059947729110718 -0.39853960275650024 194 185 173 
-0.88109838962554932 0.34964951872825623 -0.37695452570915222 194 185 174 
-0.89367073774337769 0.28384727239608765 -0.49730110168457031 195 185 176 
-0.88151693344116211 0.3532031774520874 -0.36385047435760498 195 185 175 
-0.99628674983978271 -0.48302125930786133 0.26231804490089417 201 205 201 
0.5379866361618042 -0.50324064493179321 0.50087398290634155 209 219 220 
