ply
format ascii 1.0
comment VTK generated PLY File
obj_info vtkPolyData points and polygons: vtk4.0
element vertex 69
property float x
property float y
property float z
property uchar red
property uchar green
property uchar blue
element face 0
property list uchar int vertex_indices
end_header
0.39176702499389648 -0.34581336379051208 0.2087356299161911 143 128 114 
0.39276260137557983 -0.35229820013046265 0.18790853023529053 142 126 113 
0.19252745807170868 -0.6648247241973877 -0.30644315481185913 203 189 178 
0.3945043683052063 -0.34675309062004089 0.19469010829925537 142 126 113 
0.39671239256858826 -0.3393862247467041 0.21314048767089844 143 127 114 
0.39645928144454956 -0.33136552572250366 0.23595711588859558 145 129 115 
0.39705094695091248 -0.33989128470420837 0.19619962573051453 140 124 111 
0.39601168036460876 -0.34717488288879395 0.16812393069267273 131 116 103 
0.40060347318649292 -0.32522189617156982 0.24298843741416931 142 127 112 
0.39942950010299683 -0.32895702123641968 0.22878675162792206 142 126 113 
0.39733037352561951 -0.32778006792068481 0.23481182754039764 143 127 113 
0.39589947462081909 -0.34156697988510132 0.18469473719596863 135 120 107 
0.39637064933776855 -0.3422698974609375 0.1715877503156662 121 107 93 
0.40066814422607422 -0.32601124048233032 0.21757583320140839 141 125 111 
0.39817661046981812 -0.33112683892250061 0.20336839556694031 139 123 110 
0.39832574129104614 -0.3394615650177002 0.16638247668743134 119 105 91 
0.40083551406860352 -0.31681147217750549 0.24602055549621582 140 123 111 
0.39966082572937012 -0.33367246389389038 0.17633926868438721 118 105 92 
0.40116405487060547 -0.32422685623168945 0.20541438460350037 132 117 105 
0.40636724233627319 -0.30754339694976807 0.25633132457733154 141 124 110 
0.40283414721488953 -0.31373691558837891 0.23423302173614502 138 122 109 
0.40269368886947632 -0.31836140155792236 0.21588656306266785 132 116 104 
0.40707796812057495 -0.30624866485595703 0.24932357668876648 140 124 110 
0.40604096651077271 -0.31003206968307495 0.23530066013336182 140 123 110 
0.40400463342666626 -0.31285524368286133 0.22599053382873535 134 119 106 
0.40364152193069458 -0.32142961025238037 0.19111141562461853 118 103 90 
0.40935331583023071 -0.30088120698928833 0.25886440277099609 140 124 110 
0.40786194801330566 -0.30798742175102234 0.228754922747612 134 118 105 
0.40877756476402283 -0.30348753929138184 0.23873388767242432 134 119 105 
0.40582805871963501 -0.31022772192955017 0.215323805809021 120 106 93 
0.40960299968719482 -0.30009931325912476 0.23980975151062012 133 118 105 
0.40710902214050293 -0.30423820018768311 0.22375039756298065 120 107 93 
0.40873545408248901 -0.33126869797706604 0.11082764714956284 115 101 90 
0.41035223007202148 -0.2999444305896759 0.21579949557781219 117 102 90 
0.41022142767906189 -0.3046727180480957 0.19670698046684265 116 101 89 
0.41267919540405273 -0.30122646689414978 0.19899094104766846 116 102 90 
0.41248923540115356 -0.30236184597015381 0.1870485246181488 116 101 90 
0.39015626907348633 -0.34520930051803589 0.23837511241436005 145 129 116 
0.4151875376701355 -0.29529058933258057 0.18591150641441345 114 100 88 
0.08632572740316391 -0.69476908445358276 -0.25584983825683594 210 195 183 
-0.023323416709899902 0.2348463237285614 0.41917794942855835 140 124 109 
0.0056097907945513725 0.23489277064800262 0.4205012321472168 130 114 99 
-0.014988621696829796 0.24344739317893982 0.4215044379234314 134 119 104 
-0.042842190712690353 0.24999997019767761 0.41960924863815308 133 119 105 
-0.02863311767578125 0.26839172840118408 0.42149695754051208 123 108 94 
-0.00042629241943359375 0.26839292049407959 0.42263433337211609 121 106 93 
0.055735748261213303 -0.6702113151550293 -0.29286780953407288 210 196 183 
0.1599297970533371 0.27589601278305054 0.44021376967430115 185 173 162 
0.046374719589948654 -0.65380185842514038 -0.31976786255836487 207 193 180 
-0.021814744919538498 0.23918096721172333 0.41954219341278076 137 121 105 
0.017717441543936729 0.2391636073589325 0.42271304130554199 127 111 97 
-0.0031241178512573242 0.24345767498016357 0.42041775584220886 132 116 101 
-0.18507210910320282 -0.40294334292411804 0.48649582266807556 212 183 183 
-0.018896779045462608 0.27490526437759399 0.42247188091278076 129 114 101 
0.39702737331390381 -0.33390840888023376 0.21681730449199677 141 125 112 
0.39580869674682617 -0.33294025063514709 0.22444479167461395 143 128 114 
0.39956817030906677 -0.31992179155349731 0.23309648036956787 139 124 111 
0.40479147434234619 -0.31340539455413818 0.21264342963695526 125 109 97 
0.40180343389511108 -0.31613841652870178 0.23514211177825928 138 122 109 
0.40848368406295776 -0.30669686198234558 0.20356544852256775 116 102 89 
-0.036441724747419357 0.221774622797966 0.41740792989730835 142 127 113 
0.41005778312683105 -0.30167698860168457 0.21763846278190613 120 105 93 
0.12147152423858643 0.23689243197441101 0.432453453540802 174 162 152 
0.41111800074577332 -0.30085450410842896 0.20348572731018066 116 102 90 
0.41531047224998474 -0.30073091387748718 0.1659369170665741 115 101 89 
-0.084206543862819672 0.25653493404388428 0.41590046882629395 147 131 118 
0.39308756589889526 -0.34127205610275269 0.21812784671783447 144 129 115 
-0.076265297830104828 0.23161017894744873 0.41228049993515015 151 134 119 
0.11384439468383789 0.23055756092071533 0.43106883764266968 170 158 149 
