ply
format ascii 1.0
comment VTK generated PLY File
obj_info vtkPolyData points and polygons: vtk4.0
element vertex 15
property float x
property float y
property float z
property uchar red
property uchar green
property uchar blue
element face 0
property list uchar int vertex_indices
end_header
0.88761520385742188 -0.64528119564056396 0.25996541976928711 164 163 157 
-0.49552690982818604 -0.76638495922088623 0.46590957045555115 146 161 165 
-0.017917156219482422 -0.98442733287811279 0.064338728785514832 127 140 140 
-0.027021011337637901 -0.98596972227096558 0.065248534083366394 128 140 140 
0.05217444896697998 -0.10647626966238022 0.21926423907279968 202 204 203 
0.072410546243190765 -0.10138265788555145 0.22330173850059509 198 201 200 
0.056451957672834396 -0.98269832134246826 0.044321417808532715 129 143 142 
0.072690688073635101 -0.97377651929855347 0.050484340637922287 180 186 183 
0.030436715111136436 -0.9879729151725769 0.044454537332057953 127 140 141 
0.10427944362163544 -0.085314556956291199 0.22742888331413269 214 212 208 
0.13240513205528259 -0.082507416605949402 0.23207208514213562 212 211 208 
0.028303822502493858 -0.98622769117355347 0.048164129257202148 128 140 141 
0.10804124921560287 -0.095607921481132507 0.2296135425567627 188 194 193 
0.88359391689300537 -0.63386654853820801 0.32120519876480103 163 162 156 
0.91736757755279541 -0.61755001544952393 0.31238210201263428 164 164 157 
